HIERARCHY
ROOT Hips
{
	OFFSET -3.958830 18.904000 13.208200
	CHANNELS 6 Xposition Yposition Zposition Zrotation Yrotation Xrotation 
	JOINT LHipJoint
	{
		OFFSET 0.000000 0.000000 0.000000
		CHANNELS 3 Zrotation Yrotation Xrotation
		JOINT LeftUpLeg
		{
			OFFSET 1.800000 -1.400000 0.085000
			CHANNELS 3 Zrotation Yrotation Xrotation
			JOINT LeftLeg
			{
				OFFSET 2.215000 -6.000000 0.000000
				CHANNELS 3 Zrotation Yrotation Xrotation
				JOINT LeftFoot
				{
					OFFSET 2.500000 -6.900000 0.000000
					CHANNELS 3 Zrotation Yrotation Xrotation
					JOINT LeftToeBase
					{
						OFFSET 0.200000 -0.500000 1.950000
						CHANNELS 3 Zrotation Yrotation Xrotation
						End Site
						{
							OFFSET 0.000000 0.000000 0.000000
						}
					}
				}
			}
		}
	}
	JOINT RHipJoint
	{
		OFFSET 0.000000 0.000000 0.000000
		CHANNELS 3 Zrotation Yrotation Xrotation
		JOINT RightUpLeg
		{
			OFFSET -1.800000 -1.400000 0.085000
			CHANNELS 3 Zrotation Yrotation Xrotation
			JOINT RightLeg
			{
				OFFSET -2.215000 -6.000000 0.000000
				CHANNELS 3 Zrotation Yrotation Xrotation
				JOINT RightFoot
				{
					OFFSET -2.500000 -6.900000 0.000000
					CHANNELS 3 Zrotation Yrotation Xrotation
					JOINT RightToeBase
					{
						OFFSET -0.200000 -0.500000 1.950000
						CHANNELS 3 Zrotation Yrotation Xrotation
						End Site
						{
							OFFSET 0.000000 0.000000 0.000000
						}
					}
				}
			}
		}
	}
	JOINT LowerBack
	{
		OFFSET 0.000000 0.000000 0.000000
		CHANNELS 3 Zrotation Yrotation Xrotation
		JOINT Spine
		{
			OFFSET -0.087000 1.940000 -0.288900
			CHANNELS 3 Zrotation Yrotation Xrotation
			JOINT Spine1
			{
				OFFSET 0.000000 1.950000 0.060000
				CHANNELS 3 Zrotation Yrotation Xrotation
				JOINT Neck
				{
					OFFSET 0.000000 0.000000 0.000000
					CHANNELS 3 Zrotation Yrotation Xrotation
					JOINT Neck1
					{
						OFFSET 0.000000 1.600000 0.340000
						CHANNELS 3 Zrotation Yrotation Xrotation
						JOINT Head
						{
							OFFSET 0.000000 1.667000 -0.240000
							CHANNELS 3 Zrotation Yrotation Xrotation
							End Site
							{
								OFFSET 0.000000 0.000000 0.000000
							}
						}
					}
				}
				JOINT LeftShoulder
				{
					OFFSET 0.000000 0.000000 0.000000
					CHANNELS 3 Zrotation Yrotation Xrotation
					JOINT LeftArm
					{
						OFFSET 2.700000 1.550000 -0.730000
						CHANNELS 3 Zrotation Yrotation Xrotation
						JOINT LeftForeArm
						{
							OFFSET 5.450000 0.000000 0.000000
							CHANNELS 3 Zrotation Yrotation Xrotation
							JOINT LeftHand
							{
								OFFSET 3.450000 0.000000 0.000000
								CHANNELS 3 Zrotation Yrotation Xrotation
								JOINT LeftHandIndex1
								{
									OFFSET 0.750000 0.000000 0.000000
									CHANNELS 3 Zrotation Yrotation Xrotation
									End Site
									{
										OFFSET 0.000000 0.000000 0.000000
									}
								}
							}
						}
					}
				}
				JOINT RightShoulder
				{
					OFFSET 0.000000 0.000000 0.000000
					CHANNELS 3 Zrotation Yrotation Xrotation
					JOINT RightArm
					{
						OFFSET -2.700000 1.550000 -0.730000
						CHANNELS 3 Zrotation Yrotation Xrotation
						JOINT RightForeArm
						{
							OFFSET -5.450000 0.000000 0.000000
							CHANNELS 3 Zrotation Yrotation Xrotation
							JOINT RightHand
							{
								OFFSET -3.450000 0.000000 0.000000
								CHANNELS 3 Zrotation Yrotation Xrotation
								JOINT RightHandIndex1
								{
									OFFSET -0.750000 0.000000 0.000000
									CHANNELS 3 Zrotation Yrotation Xrotation
									End Site
									{
										OFFSET 0.000000 0.000000 0.000000
									}
								}
							}
						}
					}
				}
			}
		}
	}
}
MOTION
Frames: 4
Frame Time: 0.016667
-1.238180 20.924240 -7.154940 -0.984704 12.278706 -56.103765 -15.386188 12.880071 3.241559 18.545324 -13.744186 -3.359621 11.910873 13.899487 103.948895 3.367880 13.162595 0.399218 6.897760 5.429660 6.062360 18.172198 -8.737209 4.210649 -5.013558 15.394650 2.105428 6.458505 -36.896775 102.602664 -5.928869 -14.869806 2.475936 2.955120 -4.510330 0.040900 -3.051126 -4.597196 -8.517813 -4.756383 9.852522 120.014081 -1.722881 5.458609 14.158671 -3.050473 2.188441 19.462278 -2.877886 -7.497075 43.312486 9.358690 12.337960 -103.294110 83.019253 -49.255748 14.207034 -30.565890 -14.572094 -79.630910 88.727503 85.517377 -68.769989 6.081793 15.767526 1.363640 -1.428440 1.984220 0.450700 -90.833939 40.437389 14.092136 41.050966 46.412973 -69.024432 90.230181 -89.104437 102.768481 -7.172437 -19.024088 2.530440 -1.069020 -4.238280 -2.313090 
-1.207840 20.985410 -7.191540 -1.767351 13.439102 -53.943202 -15.278810 12.584656 3.448717 18.424855 -14.974503 -6.417289 10.497226 15.202279 103.842559 3.478081 13.376886 0.400321 6.729820 5.292150 5.892310 18.273374 -8.945247 4.072936 -4.933505 14.778360 -0.634498 4.011175 -34.822876 103.767133 -5.853467 -14.791941 2.540569 2.854940 -4.472230 0.004260 -3.445867 -3.381677 -8.522784 -4.678182 7.255753 119.856394 -5.355344 3.957767 11.609037 -1.416379 1.660576 20.499777 -4.706350 -6.694865 45.164285 10.192070 13.084860 -106.130930 84.591132 -51.019814 15.797128 -34.181908 -18.397985 -71.850986 95.836716 84.841855 -74.964386 6.934947 16.956529 1.332390 -1.426670 1.914760 0.440780 -93.081476 39.978180 9.711283 48.307652 52.186060 -59.889595 58.198735 -83.265465 109.188470 -6.026838 -10.665151 2.491840 -1.072460 -4.164700 -2.306840 
-1.088920 21.094840 -7.128750 0.295854 13.144886 -50.006004 -15.061286 11.601922 3.527356 16.933508 -14.606996 -7.826080 7.195355 19.407513 102.736315 3.638202 13.994094 0.343328 6.439490 4.999700 5.582350 18.522516 -9.589413 4.087520 -7.647047 16.184955 -4.919697 1.994225 -32.546499 105.403978 -5.679346 -14.582832 2.644200 2.639250 -4.366970 -0.049180 -4.274120 0.169511 -8.699050 -5.307182 1.581930 119.794663 -17.786794 -1.624360 10.729772 0.468947 2.402189 19.122137 -15.222454 -5.455592 48.009569 16.567330 11.831950 -112.846300 77.503452 -59.878623 14.903487 -51.017908 -13.918314 38.938863 -76.025714 16.975427 -82.608699 -5.707537 80.830872 1.350980 -1.462440 1.763200 0.406540 -93.797335 28.334816 8.084331 60.836455 67.712962 -60.266709 -153.227748 -89.139481 -70.190596 -5.001644 -4.456580 2.406400 -1.020330 -3.977950 -2.272670 
-0.915850 21.099320 -7.194990 0.144935 11.494035 -50.477099 -15.406477 12.314463 3.840903 18.936167 -14.805150 -8.168334 6.118595 21.442983 102.758598 3.647953 14.057350 0.293700 6.439550 4.985610 5.616650 18.198401 -8.816122 3.719464 -5.619208 15.797150 -3.628823 0.500726 -30.221285 105.682903 -5.594736 -14.380642 2.674374 2.630780 -4.404520 -0.097090 -3.176562 -3.377691 -8.778784 -0.288398 2.978859 119.901335 -4.985327 3.633122 12.105096 -0.522635 1.163602 19.457056 -9.791467 -8.653338 50.090762 15.107510 10.412200 -109.996660 86.291832 -50.764195 12.766867 -39.390419 -30.976574 -59.340044 -4.619887 84.877923 113.177823 2.106534 6.885169 1.346650 -1.479120 1.742320 0.361370 -95.797040 38.181247 12.056437 56.450637 48.561153 -73.230959 -166.786749 -88.920631 -60.364477 -4.188509 -4.213920 2.404510 -1.034900 -3.972970 -2.299500 
